<svg xmlns="http://www.w3.org/2000/svg" viewBox="0 0 64 64">
  <defs>
    <linearGradient id="grad1" x1="0%" y1="0%" x2="100%" y2="100%">
      <stop offset="0%" style="stop-color:#10b981;stop-opacity:1" />
      <stop offset="100%" style="stop-color:#14b8a6;stop-opacity:1" />
    </linearGradient>
  </defs>
  
  <!-- Background circle -->
  <circle cx="32" cy="32" r="30" fill="url(#grad1)"/>
  
  <!-- Server/Node icon -->
  <!-- Top server -->
  <rect x="16" y="14" width="32" height="10" rx="2" fill="white" opacity="0.9"/>
  <circle cx="21" cy="19" r="1.5" fill="#10b981"/>
  <circle cx="26" cy="19" r="1.5" fill="#14b8a6"/>
  <rect x="30" y="17.5" width="14" height="1" fill="#10b981" opacity="0.6"/>
  <rect x="30" y="20" width="10" height="1" fill="#14b8a6" opacity="0.6"/>
  
  <!-- Middle server -->
  <rect x="16" y="27" width="32" height="10" rx="2" fill="white" opacity="0.9"/>
  <circle cx="21" cy="32" r="1.5" fill="#10b981"/>
  <circle cx="26" cy="32" r="1.5" fill="#14b8a6"/>
  <rect x="30" y="30.5" width="14" height="1" fill="#10b981" opacity="0.6"/>
  <rect x="30" y="33" width="10" height="1" fill="#14b8a6" opacity="0.6"/>
  
  <!-- Bottom server -->
  <rect x="16" y="40" width="32" height="10" rx="2" fill="white" opacity="0.9"/>
  <circle cx="21" cy="45" r="1.5" fill="#10b981"/>
  <circle cx="26" cy="45" r="1.5" fill="#14b8a6"/>
  <rect x="30" y="43.5" width="14" height="1" fill="#10b981" opacity="0.6"/>
  <rect x="30" y="46" width="10" height="1" fill="#14b8a6" opacity="0.6"/>
</svg>
