<svg xmlns="http://www.w3.org/2000/svg" viewBox="0 0 200 200">
  <defs>
    <linearGradient id="nosanaGreen" x1="0%" y1="0%" x2="100%" y2="100%">
      <stop offset="0%" style="stop-color:#22c55e;stop-opacity:1" />
      <stop offset="50%" style="stop-color:#10b981;stop-opacity:1" />
      <stop offset="100%" style="stop-color:#059669;stop-opacity:1" />
    </linearGradient>
    <filter id="greenGlow">
      <feGaussianBlur stdDeviation="3"/>
    </filter>
  </defs>
  
  <!-- Background circle -->
  <circle cx="100" cy="100" r="95" fill="#0a1a14"/>
  <circle cx="100" cy="100" r="88" fill="none" stroke="#22c55e" stroke-width="2" opacity="0.4"/>
  
  <!-- Left bar -->
  <rect x="50" y="50" width="26" height="100" rx="4" fill="url(#nosanaGreen)" opacity="0.9"/>
  <rect x="50" y="50" width="26" height="100" rx="4" fill="none" stroke="#22c55e" stroke-width="2"/>
  <circle cx="63" cy="65" r="3" fill="#d0ffd0"/>
  <circle cx="63" cy="78" r="3" fill="#c8ffc8"/>
  <circle cx="63" cy="91" r="3" fill="#a0f0a0"/>
  
  <!-- Middle bar -->
  <rect x="87" y="75" width="26" height="50" rx="4" fill="url(#nosanaGreen)" opacity="0.85"/>
  <rect x="87" y="75" width="26" height="50" rx="4" fill="none" stroke="#22c55e" stroke-width="2"/>
  <circle cx="100" cy="93" r="3" fill="#d0ffd0"/>
  <circle cx="100" cy="100" r="3" fill="#c8ffc8"/>
  <circle cx="100" cy="107" r="3" fill="#a0f0a0"/>
  
  <!-- Right bar -->
  <rect x="124" y="50" width="26" height="100" rx="4" fill="url(#nosanaGreen)" opacity="0.8"/>
  <rect x="124" y="50" width="26" height="100" rx="4" fill="none" stroke="#22c55e" stroke-width="2"/>
  <circle cx="137" cy="109" r="3" fill="#d0ffd0"/>
  <circle cx="137" cy="122" r="3" fill="#c8ffc8"/>
  <circle cx="137" cy="135" r="3" fill="#a0f0a0"/>
</svg>
