<svg xmlns="http://www.w3.org/2000/svg" viewBox="0 0 200 200">
  <defs>
    <!-- Premium gradient background -->
    <linearGradient id="bgGrad" x1="0%" y1="0%" x2="100%" y2="100%">
      <stop offset="0%" style="stop-color:#0a0e27;stop-opacity:1" />
      <stop offset="50%" style="stop-color:#1a1f3a;stop-opacity:1" />
      <stop offset="100%" style="stop-color:#0f1629;stop-opacity:1" />
    </linearGradient>
    
    <!-- Premium green gradient for main elements -->
    <linearGradient id="greenGrad" x1="0%" y1="0%" x2="100%" y2="100%">
      <stop offset="0%" style="stop-color:#00ff88;stop-opacity:1" />
      <stop offset="50%" style="stop-color:#00d9ff;stop-opacity:1" />
      <stop offset="100%" style="stop-color:#00ff88;stop-opacity:1" />
    </linearGradient>
    
    <!-- Metallic shine effect -->
    <linearGradient id="shine" x1="0%" y1="0%" x2="0%" y2="100%">
      <stop offset="0%" style="stop-color:#ffffff;stop-opacity:0.4" />
      <stop offset="50%" style="stop-color:#ffffff;stop-opacity:0.1" />
      <stop offset="100%" style="stop-color:#ffffff;stop-opacity:0.3" />
    </linearGradient>
    
    <!-- Glow filter -->
    <filter id="glow">
      <feGaussianBlur stdDeviation="3" result="coloredBlur"/>
      <feMerge>
        <feMergeNode in="coloredBlur"/>
        <feMergeNode in="SourceGraphic"/>
      </feMerge>
    </filter>
    
    <!-- Shadow -->
    <filter id="shadow">
      <feDropShadow dx="0" dy="4" stdDeviation="6" flood-opacity="0.5"/>
    </filter>
  </defs>
  
  <!-- Dark premium background circle -->
  <circle cx="100" cy="100" r="95" fill="url(#bgGrad)" filter="url(#shadow)"/>
  
  <!-- Outer glow ring -->
  <circle cx="100" cy="100" r="88" fill="none" stroke="url(#greenGrad)" stroke-width="1" opacity="0.3" filter="url(#glow)"/>
  
  <!-- Premium 3D server/node stack -->
  
  <!-- Top server - with 3D depth -->
  <g filter="url(#glow)">
    <!-- Main body -->
    <rect x="50" y="55" width="100" height="26" rx="4" fill="url(#greenGrad)" opacity="0.9"/>
    <rect x="50" y="55" width="100" height="26" rx="4" fill="url(#shine)" opacity="0.3"/>
    
    <!-- Status lights with glow -->
    <circle cx="65" cy="68" r="4" fill="#00ff88" filter="url(#glow)"/>
    <circle cx="78" cy="68" r="4" fill="#00d9ff" filter="url(#glow)"/>
    <circle cx="91" cy="68" r="4" fill="#7c3aed" filter="url(#glow)"/>
    
    <!-- Data lines -->
    <rect x="105" y="64" width="35" height="2" rx="1" fill="#ffffff" opacity="0.6"/>
    <rect x="105" y="70" width="28" height="2" rx="1" fill="#ffffff" opacity="0.4"/>
  </g>
  
  <!-- Middle server -->
  <g filter="url(#glow)">
    <!-- Main body -->
    <rect x="50" y="92" width="100" height="26" rx="4" fill="url(#greenGrad)" opacity="0.85"/>
    <rect x="50" y="92" width="100" height="26" rx="4" fill="url(#shine)" opacity="0.3"/>
    
    <!-- Status lights with glow -->
    <circle cx="65" cy="105" r="4" fill="#00ff88" filter="url(#glow)"/>
    <circle cx="78" cy="105" r="4" fill="#00d9ff" filter="url(#glow)"/>
    <circle cx="91" cy="105" r="4" fill="#7c3aed" filter="url(#glow)"/>
    
    <!-- Data lines -->
    <rect x="105" y="101" width="35" height="2" rx="1" fill="#ffffff" opacity="0.6"/>
    <rect x="105" y="107" width="28" height="2" rx="1" fill="#ffffff" opacity="0.4"/>
  </g>
  
  <!-- Bottom server -->
  <g filter="url(#glow)">
    <!-- Main body -->
    <rect x="50" y="129" width="100" height="26" rx="4" fill="url(#greenGrad)" opacity="0.8"/>
    <rect x="50" y="129" width="100" height="26" rx="4" fill="url(#shine)" opacity="0.3"/>
    
    <!-- Status lights with glow -->
    <circle cx="65" cy="142" r="4" fill="#00ff88" filter="url(#glow)"/>
    <circle cx="78" cy="142" r="4" fill="#00d9ff" filter="url(#glow)"/>
    <circle cx="91" cy="142" r="4" fill="#7c3aed" filter="url(#glow)"/>
    
    <!-- Data lines -->
    <rect x="105" y="138" width="35" height="2" rx="1" fill="#ffffff" opacity="0.6"/>
    <rect x="105" y="144" width="28" height="2" rx="1" fill="#ffffff" opacity="0.4"/>
  </g>
  
  <!-- Connection lines between servers -->
  <line x1="60" y1="81" x2="60" y2="92" stroke="url(#greenGrad)" stroke-width="2" opacity="0.4"/>
  <line x1="140" y1="81" x2="140" y2="92" stroke="url(#greenGrad)" stroke-width="2" opacity="0.4"/>
  
  <line x1="60" y1="118" x2="60" y2="129" stroke="url(#greenGrad)" stroke-width="2" opacity="0.4"/>
  <line x1="140" y1="118" x2="140" y2="129" stroke="url(#greenGrad)" stroke-width="2" opacity="0.4"/>
  
  <!-- Subtle accent circles in corners -->
  <circle cx="35" cy="35" r="3" fill="url(#greenGrad)" opacity="0.3"/>
  <circle cx="165" cy="35" r="3" fill="url(#greenGrad)" opacity="0.3"/>
  <circle cx="35" cy="165" r="3" fill="url(#greenGrad)" opacity="0.3"/>
  <circle cx="165" cy="165" r="3" fill="url(#greenGrad)" opacity="0.3"/>
</svg>
